<svg xmlns="http://www.w3.org/2000/svg" width="518.663" height="593.017" viewBox="0 0 518.663 593.017">
  <g id="Group_113" data-name="Group 113" transform="translate(0 0)" style="mix-blend-mode: luminosity;isolation: isolate">
    <path id="Path_43" data-name="Path 43" d="M883.934,432.92,841.1,439.843l22.732,81.074Z" transform="translate(-365.272 17.009)" fill="#356537"/>
    <path id="Path_44" data-name="Path 44" d="M850.892,459.058,827.56,538.223l55.835-55.09Z" transform="translate(-384.839 54.793)" fill="#009de0"/>
    <path id="Path_45" data-name="Path 45" d="M852.653,435.751,833.1,489.3l42.282,27.525Z" transform="translate(-376.827 21.101)" fill="#c20012"/>
    <path id="Path_46" data-name="Path 46" d="M823.925,497.123l8.891,41.1,23.332-79.165Z" transform="translate(-390.094 54.793)" fill="#ffed00"/>
    <path id="Path_47" data-name="Path 47" d="M793.66,487.473l82.906,28.251-8.891-41.1Z" transform="translate(-433.843 77.293)" fill="#c40079"/>
    <path id="Path_48" data-name="Path 48" d="M889.29,388.833,834.806,434.6l58.221,62.049Z" transform="translate(-374.365 -46.721)" fill="#c40079"/>
    <path id="Path_49" data-name="Path 49" d="M834.806,407.547l15.384,68.972,42.837-6.923Z" transform="translate(-374.365 -19.667)" fill="#009de0"/>
    <path id="Path_50" data-name="Path 50" d="M826.8,472.015,793.66,491.244l74.015-12.85Z" transform="translate(-433.843 73.522)" fill="#356537"/>
    <path id="Path_51" data-name="Path 51" d="M831.729,496.75l26.678-42.185L820.515,474.7Z" transform="translate(-395.023 48.298)" fill="#e7b040"/>
    <path id="Path_52" data-name="Path 52" d="M820.515,475.657l37.893-21.093-21.728,3.406Z" transform="translate(-395.023 48.298)" fill="#69a840"/>
    <path id="Path_53" data-name="Path 53" d="M854.214,470.549,826.82,443.507l-3.4,39.234Z" transform="translate(-390.829 32.314)" fill="#c20012"/>
    <path id="Path_54" data-name="Path 54" d="M809.244,476.849l38.778,2.237-25.622-12.3Z" transform="translate(-411.315 65.962)" fill="#356537"/>
    <path id="Path_55" data-name="Path 55" d="M814.624,473.869l25.622,12.3L828.31,461.883Z" transform="translate(-403.539 58.877)" fill="#009de0"/>
    <path id="Path_56" data-name="Path 56" d="M828.037,487.935l12.473-48.02-20.29,25.321Z" transform="translate(-395.449 27.12)" fill="#ffed00"/>
    <path id="Path_57" data-name="Path 57" d="M826.195,467.411l2.192-13.143-10.266,7.115Z" transform="translate(-398.483 47.869)" fill="#c20012"/>
    <path id="Path_58" data-name="Path 58" d="M816.322,466.429l13.619-6.787-14.411.494Z" transform="translate(-402.229 55.638)" fill="#c40079"/>
    <path id="Path_59" data-name="Path 59" d="M815.529,463.7l14.411-.494-8.073-6.028Z" transform="translate(-402.229 52.074)" fill="#2e2f7f"/>
    <path id="Path_60" data-name="Path 60" d="M821.411,461.838l10.265-7.115-15.831-.77Z" transform="translate(-401.773 47.414)" fill="#009de0"/>
    <path id="Path_61" data-name="Path 61" d="M833.538,461.695,814.18,448.14l3.527,12.785Z" transform="translate(-404.18 39.01)" fill="#69a840"/>
    <path id="Path_62" data-name="Path 62" d="M814.489,457.146l-5.245,33.636,29.222-22.461Z" transform="translate(-411.315 52.029)" fill="#c20012"/>
    <path id="Path_63" data-name="Path 63" d="M826.134,415.021l-.557.672,22.57,18.908,54.484-45.768Z" transform="translate(-387.705 -46.721)" fill="#a1bf35"/>
    <path id="Path_64" data-name="Path 64" d="M935.052,393.634l-134.274-11.4,37.18,19.494,24.024,22.83Z" transform="translate(-423.553 -56.258)" fill="#ffed00"/>
    <path id="Path_65" data-name="Path 65" d="M887.513,347.359l-86.734,85.29,134.274,11.4Z" transform="translate(-423.553 -106.672)" fill="#c20012"/>
    <path id="Path_66" data-name="Path 66" d="M887.211,469.259l-47-136.063-3.964,34.638Z" transform="translate(-372.285 -127.147)" fill="#2e2f7f"/>
    <path id="Path_67" data-name="Path 67" d="M858.522,444.806l-50.763-8.275,30.473,33.6Z" transform="translate(-413.462 22.229)" fill="#009de0"/>
    <path id="Path_68" data-name="Path 68" d="M804.992,454.114l10.4,41.05,5.245-33.636Z" transform="translate(-417.461 47.647)" fill="#009de0"/>
    <path id="Path_69" data-name="Path 69" d="M840.016,471.945l-33.49-36.673,8.36,27.072Z" transform="translate(-415.245 20.41)" fill="#58257f"/>
    <path id="Path_70" data-name="Path 70" d="M830.4,454.143l-39.18-4.3,34.149,57.106Z" transform="translate(-437.371 41.467)" fill="#ffed00"/>
    <path id="Path_71" data-name="Path 71" d="M792.725,451.6l2.286,69.156L829.062,501.8Z" transform="translate(-435.194 44.011)" fill="#2e2f7f"/>
    <path id="Path_72" data-name="Path 72" d="M837.076,452.671l-32.083,3.53,32.975,15.627Z" transform="translate(-417.461 45.561)" fill="#58257f"/>
    <path id="Path_73" data-name="Path 73" d="M828.007,448.725l-23.014,13.18,26.541-.395Z" transform="translate(-417.461 39.857)" fill="#c20012"/>
    <path id="Path_74" data-name="Path 74" d="M843.839,449.087l-40.31-2.744L792.3,456.722l20.924,11.011Z" transform="translate(-435.814 36.412)" fill="#c20012"/>
    <path id="Path_75" data-name="Path 75" d="M824.048,436.217,794.9,465.95l45.184-2.227Z" transform="translate(-432.055 21.775)" fill="#69a840"/>
    <path id="Path_76" data-name="Path 76" d="M883.435,396.257l3.964-34.638-83.8-48.087Z" transform="translate(-419.475 -155.571)" fill="#356537"/>
    <path id="Path_77" data-name="Path 77" d="M795.9,364.065l11.923,68.583,86.734-85.29Z" transform="translate(-430.6 -106.672)" fill="#009de0"/>
    <path id="Path_78" data-name="Path 78" d="M795.9,412.963l98.657-16.706-79.835-82.725Z" transform="translate(-430.6 -155.571)" fill="#a1bf35"/>
    <path id="Path_79" data-name="Path 79" d="M797.172,439.939l-16.326-29.585,5.978,34.822Z" transform="translate(-452.366 -15.611)" fill="#c20012"/>
    <path id="Path_80" data-name="Path 80" d="M908.7,402.72,788.863,285.1,824.9,354.633Z" transform="translate(-440.777 -196.671)" fill="#c20012"/>
    <path id="Path_81" data-name="Path 81" d="M799.546,445.176l-5.978-34.822-21.523,11.433Z" transform="translate(-465.089 -15.611)" fill="#356537"/>
    <path id="Path_82" data-name="Path 82" d="M771.634,393.243l71.273,29.53L830.984,354.19Z" transform="translate(-465.682 -96.797)" fill="#356537"/>
    <path id="Path_83" data-name="Path 83" d="M801.7,394.9l41.2,4.794-71.273-29.53Z" transform="translate(-465.682 -73.714)" fill="#58257f"/>
    <path id="Path_84" data-name="Path 84" d="M798.927,427.016l.634-28.188-31.224,12.759Z" transform="translate(-470.448 -32.273)" fill="#009de0"/>
    <path id="Path_85" data-name="Path 85" d="M777.4,430.907l21.523-11.433-30.59-15.429Z" transform="translate(-470.448 -24.731)" fill="#69a840"/>
    <path id="Path_86" data-name="Path 86" d="M751.515,460.527l50.2-45.5-26.887,1.142Z" transform="translate(-494.764 -8.853)" fill="#009de0"/>
    <path id="Path_87" data-name="Path 87" d="M764.99,426.077l26.887-1.142-33.552-16.759Z" transform="translate(-484.921 -18.759)" fill="#58257f"/>
    <path id="Path_88" data-name="Path 88" d="M758.325,414.148l33.552,16.759-9.067-26.862Z" transform="translate(-484.921 -24.731)" fill="#c20012"/>
    <path id="Path_89" data-name="Path 89" d="M799.039,425.647l6.91-45.372L768.7,395.717Z" transform="translate(-469.926 -59.092)" fill="#c40079"/>
    <path id="Path_90" data-name="Path 90" d="M768.337,429.278l31.224-12.759-30.34-29.929Z" transform="translate(-470.448 -49.964)" fill="#ffed00"/>
    <path id="Path_91" data-name="Path 91" d="M768.7,410.339l37.25-15.443-30.07-24.737Z" transform="translate(-469.926 -73.714)" fill="#009de0"/>
    <path id="Path_92" data-name="Path 92" d="M740.533,403.518l43.512,11.391,24.485-10.1Z" transform="translate(-510.641 -25.492)" fill="#69a840"/>
    <path id="Path_93" data-name="Path 93" d="M746.36,452.684l12.609,7.168L782.285,415.5Z" transform="translate(-502.217 -8.178)" fill="#356537"/>
    <path id="Path_94" data-name="Path 94" d="M754.869,333.279,855.22,412.963l18.822-99.431Z" transform="translate(-489.918 -155.571)" fill="#009de0"/>
    <path id="Path_95" data-name="Path 95" d="M743.546,352.971l68.69,42.034,59.35-39.053Z" transform="translate(-506.284 -98.56)" fill="#ffed00"/>
    <path id="Path_96" data-name="Path 96" d="M771.235,321.607l-27.689,76.7,128.04,2.981Z" transform="translate(-506.284 -143.898)" fill="#c20012"/>
    <path id="Path_97" data-name="Path 97" d="M739.512,429.482l52.672-3.4-6.665-17.9Z" transform="translate(-512.116 -18.759)" fill="#e7b040"/>
    <path id="Path_98" data-name="Path 98" d="M738.328,421.731l2.9,7.751,46.008-21.306Z" transform="translate(-513.828 -18.759)" fill="#58257f"/>
    <path id="Path_99" data-name="Path 99" d="M751.121,287.747l9.164,82.8L879.459,350.8Z" transform="translate(-495.334 -192.843)" fill="#ffed00"/>
    <path id="Path_100" data-name="Path 100" d="M879.459,354.633,843.421,285.1l-92.3,6.476Z" transform="translate(-495.334 -196.671)" fill="#e7b040"/>
    <path id="Path_101" data-name="Path 101" d="M857.217,308l-115.639-38.74,23.339,45.217Z" transform="translate(-509.13 -219.571)" fill="#c40079"/>
    <path id="Path_102" data-name="Path 102" d="M759.676,374.716l12.362-21.745-48.2,4.545Z" transform="translate(-534.776 -98.56)" fill="#356537"/>
    <path id="Path_103" data-name="Path 103" d="M728.861,381.242l35.915,17.067,27.688-76.7Z" transform="translate(-527.513 -143.898)" fill="#009de0"/>
    <path id="Path_104" data-name="Path 104" d="M733.76,382.294l25.916-10.265-35.839-17.2Z" transform="translate(-534.776 -95.873)" fill="#58257f"/>
    <path id="Path_105" data-name="Path 105" d="M723.836,367.605l48.2-4.545-35.915-17.068Z" transform="translate(-534.776 -108.648)" fill="#ffed00"/>
    <path id="Path_106" data-name="Path 106" d="M735.144,356.7l48.238,13.85-9.164-82.8Z" transform="translate(-518.431 -192.843)" fill="#58257f"/>
    <path id="Path_107" data-name="Path 107" d="M722.312,368.311l16.014,12.932,63.6-59.635Z" transform="translate(-536.979 -143.898)" fill="#c20012"/>
    <path id="Path_108" data-name="Path 108" d="M753.692,315.944l-1.432,2.519L722.312,376.5l79.617-46.7Z" transform="translate(-536.979 -152.085)" fill="#a1bf35"/>
    <path id="Path_109" data-name="Path 109" d="M698.2,383.482l72.63-3.189L718.1,356.214Z" transform="translate(-571.841 -93.872)" fill="#009de0"/>
    <path id="Path_110" data-name="Path 110" d="M706.334,358.215l52.726,24.078-9.923-27.464Z" transform="translate(-560.076 -95.873)" fill="#c20012"/>
    <path id="Path_111" data-name="Path 111" d="M710.823,396.465l-17.889-26.523,1.16,25.958Z" transform="translate(-579.447 -74.028)" fill="#58257f"/>
    <path id="Path_112" data-name="Path 112" d="M764.9,356.7l39.073-68.955-89.418,83.669,50.234-14.745Z" transform="translate(-548.189 -192.843)" fill="#ffed00"/>
    <path id="Path_113" data-name="Path 113" d="M758.853,315.931l-40.188,36.661,8.92,23.924,29.947-58.035Z" transform="translate(-542.251 -152.103)" fill="#2e2f7f"/>
    <path id="Path_114" data-name="Path 114" d="M730.257,323.432l-15.7,47.984,89.418-83.669Z" transform="translate(-548.189 -192.843)" fill="#2e2f7f"/>
    <path id="Path_115" data-name="Path 115" d="M734.15,331.106l73.719-35.685-96-12.983Z" transform="translate(-552.082 -200.517)" fill="#e7b040"/>
    <path id="Path_116" data-name="Path 116" d="M714.557,330.676,724.6,352.591l40.188-36.661Z" transform="translate(-548.189 -152.103)" fill="#c20012"/>
    <path id="Path_117" data-name="Path 117" d="M807.868,313.4,725.055,270l-13.191,30.413Z" transform="translate(-552.082 -218.494)" fill="#69a840"/>
    <path id="Path_118" data-name="Path 118" d="M776.732,269.258l-59.474,1.821,82.813,43.4Z" transform="translate(-544.285 -219.571)" fill="#009de0"/>
    <path id="Path_119" data-name="Path 119" d="M709.417,395.9l-1.16-25.958-25.924,2.283Z" transform="translate(-594.77 -74.028)" fill="#009de0"/>
    <path id="Path_120" data-name="Path 120" d="M688.393,354.422l23.97,31.651,19.9-27.267Z" transform="translate(-586.01 -96.463)" fill="#ffed00"/>
    <path id="Path_121" data-name="Path 121" d="M699.5,392.377l12.867-6.3-23.97-31.651Z" transform="translate(-586.009 -96.463)" fill="#69a840"/>
    <path id="Path_122" data-name="Path 122" d="M687.29,384.593l25.924-2.283L678.9,361.386Z" transform="translate(-599.728 -86.396)" fill="#356537"/>
    <path id="Path_123" data-name="Path 123" d="M678.9,371.453l34.311,20.924-11.1-37.955Z" transform="translate(-599.728 -96.463)" fill="#c40079"/>
    <path id="Path_124" data-name="Path 124" d="M689.126,289.8l62.192,78.661,15.7-47.984Z" transform="translate(-584.95 -189.883)" fill="#009de0"/>
    <path id="Path_125" data-name="Path 125" d="M732.235,373.6l19.083-5.148L689.126,289.8Z" transform="translate(-584.95 -189.883)" fill="#69a840"/>
    <path id="Path_126" data-name="Path 126" d="M665.135,393.71l42.059-9.117-8.386-23.207Z" transform="translate(-619.631 -86.396)" fill="#e7b040"/>
    <path id="Path_127" data-name="Path 127" d="M689.126,300.429l77.892,30.677-22.285-48.668Z" transform="translate(-584.95 -200.517)" fill="#c20012"/>
    <path id="Path_128" data-name="Path 128" d="M687.1,359.981,735.164,373.6,692.055,289.8Z" transform="translate(-587.879 -189.883)" fill="#c40079"/>
    <path id="Path_129" data-name="Path 129" d="M677.63,353.566l3.115,19.125,23.207-17.031Z" transform="translate(-601.569 -97.701)" fill="#58257f"/>
    <path id="Path_130" data-name="Path 130" d="M659.119,350.138,707.5,377.645l-3.115-19.125Z" transform="translate(-628.327 -102.655)" fill="#009de0"/>
    <path id="Path_131" data-name="Path 131" d="M660.531,387.31l11.258,6.4,33.673-32.324Z" transform="translate(-626.285 -86.396)" fill="#ffed00"/>
    <path id="Path_132" data-name="Path 132" d="M663.574,347.737l-4.455,5.872,45.269,8.382Z" transform="translate(-628.327 -106.126)" fill="#69a840"/>
    <path id="Path_133" data-name="Path 133" d="M744.733,300.415,757.924,270l-68.8,48.4Z" transform="translate(-584.95 -218.494)" fill="#2e2f7f"/>
    <path id="Path_134" data-name="Path 134" d="M694.38,318.406l68.8-48.4-77.685,7.48Z" transform="translate(-590.203 -218.494)" fill="#009de0"/>
    <path id="Path_135" data-name="Path 135" d="M763.177,291.492,699.23,255.137l-13.738,43.835Z" transform="translate(-590.203 -239.983)" fill="#c20012"/>
    <path id="Path_136" data-name="Path 136" d="M744.959,272.162,691.11,255.137l63.947,36.355Z" transform="translate(-582.083 -239.983)" fill="#58257f"/>
    <path id="Path_137" data-name="Path 137" d="M677.756,341.6l22.851,18.384,4.955-70.186Z" transform="translate(-601.386 -189.883)" fill="#58257f"/>
    <path id="Path_138" data-name="Path 138" d="M728.213,254.623l-21.077-5.683,14.659,32.179Z" transform="translate(-558.918 -248.941)" fill="#ffed00"/>
    <path id="Path_139" data-name="Path 139" d="M730.3,248.94,691.11,264.095l53.849,17.025Z" transform="translate(-582.083 -248.941)" fill="#009de0"/>
    <path id="Path_140" data-name="Path 140" d="M671.547,283.342l15.185,67.583,27.806-51.8Z" transform="translate(-610.362 -199.211)" fill="#ffed00"/>
    <path id="Path_141" data-name="Path 141" d="M657.473,345.23l49.6,5.694-15.184-67.583Z" transform="translate(-630.707 -199.211)" fill="#c20012"/>
    <path id="Path_142" data-name="Path 142" d="M671.547,298.2l42.991,15.781-8.888-40.923Z" transform="translate(-610.362 -214.073)"/>
    <path id="Path_143" data-name="Path 143" d="M709.566,255.137l-31.224,20.416,17.486,23.419Z" transform="translate(-600.539 -239.983)" fill="#69a840"/>
    <path id="Path_144" data-name="Path 144" d="M715.94,281.51l-51.511-14.293,17.408,39.436Z" transform="translate(-620.651 -222.521)" fill="#ffed00"/>
    <path id="Path_145" data-name="Path 145" d="M698.454,263.485l-34.025,9.126L715.94,286.9Z" transform="translate(-620.651 -227.915)" fill="#009de0"/>
    <path id="Path_146" data-name="Path 146" d="M647.948,324.06l23.294,21.17,34.42-61.888Z" transform="translate(-644.476 -199.211)" fill="#009de0"/>
    <path id="Path_147" data-name="Path 147" d="M653.914,315.138l-5.966,8.922,57.714-40.718Z" transform="translate(-644.476 -199.211)" fill="#58257f"/>
    <path id="Path_148" data-name="Path 148" d="M659.054,281.219l-.634.836-8.033,36.152,51.747-31.8Z" transform="translate(-640.949 -202.28)" fill="#ffed00"/>
    <path id="Path_149" data-name="Path 149" d="M679.6,267.217,653.931,301.46l43.081,5.192Z" transform="translate(-635.826 -222.521)" fill="#e7b040"/>
    <path id="Path_150" data-name="Path 150" d="M662.7,283.28l-16.174,29.067,9.438,5.366L664,281.561Z" transform="translate(-646.528 -201.786)" fill="#356537"/>
  </g>
</svg>
