<?xml version="1.0" encoding="UTF-8" standalone="no"?>
<!-- Created with Inkscape (http://www.inkscape.org/) -->

<svg
   width="210mm"
   height="297mm"
   viewBox="0 0 210 297"
   version="1.1"
   id="svg5"
   xmlns="http://www.w3.org/2000/svg"
   xmlns:svg="http://www.w3.org/2000/svg">
  <defs
     id="defs2" />
  <g
     id="layer1">
    <path
       id="path2794"
       style="fill:none;stroke:#000000;stroke-width:5.00001"
       d="M 416.92383 185.08984 A 102.50885 81.065232 0 0 0 325.11719 230.20898 A 76.410316 86.631595 0 0 0 304.61133 227.0293 A 76.410316 86.631595 0 0 0 228.20117 313.66016 A 76.410316 86.631595 0 0 0 232.41211 341.83984 A 121.86613 80.08246 0 0 0 191.31836 401.74609 A 121.86613 80.08246 0 0 0 313.18359 481.82812 A 121.86613 80.08246 0 0 0 395.14453 460.97266 A 124.38411 48.725374 0 0 0 475.76562 472.61719 A 124.38411 48.725374 0 0 0 600.05273 425.05859 A 84.63586 88.383445 0 0 0 628.59375 430.29883 A 84.63586 88.383445 0 0 0 713.22852 341.91406 A 84.63586 88.383445 0 0 0 657.83789 258.97656 A 95.804544 73.422013 0 0 0 562.22852 190.16602 A 95.804544 73.422013 0 0 0 493.62695 212.37695 A 102.50885 81.065232 0 0 0 416.92383 185.08984 z "
       transform="scale(0.26458333)" />
    <g
       id="g3889"
       transform="matrix(1.5524812,0,0,1.291789,-15.424748,-121.4616)"
       style="stroke-width:0.70614">
      <rect
         style="fill:#ffffff;stroke:#000000;stroke-width:0.934167"
         id="rect3238"
         width="28.143679"
         height="33.065426"
         x="64.617851"
         y="147.57112"
         rx="1.5363586"
         ry="1.8137625" />
      <ellipse
         style="fill:none;stroke:#000000;stroke-width:0.932049"
         id="path3134-5"
         d="m 92.730879,155.26892 a 14.037062,7.067297 0 0 1 -13.501994,7.06216 14.037062,7.067297 0 0 1 -14.531338,-6.52376" />
      <ellipse
         style="fill:none;stroke:#000000;stroke-width:0.932572"
         id="path3134-5-6"
         d="m 92.689493,162.62706 a 14.021456,7.067297 0 0 1 -13.486982,7.06216 14.021456,7.067297 0 0 1 -14.515183,-6.52377" />
      <ellipse
         style="fill:none;stroke:#000000;stroke-width:0.928716"
         id="path3134-5-6-2"
         d="M 92.792199,170.58011 A 14.13794,7.067297 0 0 1 79.193172,177.64227 14.13794,7.067297 0 0 1 64.557403,171.1185" />
      <ellipse
         style="fill:#ffffff;stroke:#000000;stroke-width:0.928716"
         id="path3134-5-6-2-9"
         d="m 92.78457,178.45183 a 14.13794,7.067297 0 0 1 -13.599027,7.06216 14.13794,7.067297 0 0 1 -14.635769,-6.52377" />
      <ellipse
         style="fill:#ffffff;stroke:#000000;stroke-width:0.934167"
         id="path3134"
         cx="78.659698"
         cy="147.86172"
         rx="13.973512"
         ry="7.067297" />
    </g>
    <ellipse
       style="fill:none;stroke:#000000;stroke-width:5.29167;stroke-miterlimit:4;stroke-dasharray:none"
       id="path3913"
       cx="115.59818"
       cy="81.449829"
       rx="10.944444"
       ry="11.334107" />
    <path
       style="fill:none;stroke:#000000;stroke-width:5.29167;stroke-linecap:butt;stroke-linejoin:miter;stroke-miterlimit:4;stroke-dasharray:none;stroke-opacity:1"
       d="m 125.31126,86.19841 27.17127,15.66388"
       id="path3948" />
  </g>
</svg>
